# xmcd
#
# Track frame offsets:
#	150
#	14717
#	30125
#	47792
#	58427
#	78067
#	87915
#	112112
#	127605
#	139877
#	159242
#	180432
#	194635
#	211077
#	228257
#
# Disc length: 3254 seconds
#
# Revision: 0
# Processed by: cddbd v1.5.1PL2 Copyright (c) Steve Scherf et al.
# Submitted via: audiograbber 1.83.01
#
DISCID=be0cb40f
DTITLE=Blues Meister - Cookin With BM
DYEAR=1994
DGENRE=Blues
TTITLE0=Smoke Pit
TTITLE1=Too Hot Chili
TTITLE2=It's Been So Long
TTITLE3=Messin' Around
TTITLE4=My Baby Is Gone
TTITLE5=Cookin'
TTITLE6=It's Not Just A Touch
TTITLE7=Walk My Dog
TTITLE8=Sweet Tooth
TTITLE9=Wait For You
TTITLE10=Best Think I Never Had
TTITLE11=Lazy Man
TTITLE12=Give Me What You Got
TTITLE13=Marching Guitars
TTITLE14=Booger Song
EXTD=
EXTT0=
EXTT1=
EXTT2=
EXTT3=
EXTT4=
EXTT5=
EXTT6=
EXTT7=
EXTT8=
EXTT9=
EXTT10=
EXTT11=
EXTT12=
EXTT13=
EXTT14=
PLAYORDER=
